{"title":"When in Rome[2010]CAM.XViD-IMAGiNE[ExtraTorrent]","uid":5388060,"size":747681700,"categoryP":"video","categoryS":"movies","magnet":"?xt=urn:btih:59ee179d070fcac67683c1e073da0fee8d669d57&amp;dn=When+in+Rome%5B2010%5DCAM.XViD-IMAGiNE%5BExtraTorrent%5D&amp;tr=udp%3A%2F%2Ftracker.openbittorrent.com%3A80&amp;tr=udp%3A%2F%2Fopen.demonii.com%3A1337&amp;tr=udp%3A%2F%2Ftracker.coppersurfer.tk%3A6969&amp;tr=udp%3A%2F%2Fexodus.desync.com%3A6969","seeders":0,"leechers":1,"uploader":"SaM","files":53,"time":1266954130,"description":"extratorrent.com &lt;a href=&quot;\nhttp://extratorrent.com/torrent/2188115/&quot; rel=&quot;nofollow&quot; target=&quot;_NEW&quot;&gt;\nhttp://extratorrent.com/torrent/2188115/&lt;/a&gt;\n\n\n\n\nBeth is a young, ambitious New Yorker who is completely unlucky in love. However, on a whirlwind trip to Rome, she impulsively steals some coins from a reputed fountain of love, and is then aggressively pursued by a band of suitors. |\n\n\n\n\n/\nAnother Fine Release Brought to you from - IMAGiNE\n\n********************************************************************************************************************\nWhen in Rome CAM XViD - IMAGiNE\n********************************************************************************************************************\n\nRipper ...........: IMAGiNE IMDB Rating.......:5.2/10\nVideo Codec.......: XVID Release Date......:23/02/10\nAudio Codec.......:MP3 Theatre Date......:29/01/10\nAudio Bitrate.....:128 Runtime.......:1h 24mn\nSubtitles.........:NIL Language..........:ENGLISH\nResolution...... 704 x 288 IMDb URL..........:http://www.imdb.com/title/tt1185416/\n\n\nDETAILS:\n\nVideo\nID : 0\nFormat : MPEG-4 Visual\nFormat profile : Advanced Simple@L5\nFormat settings, BVOP : Yes\nFormat settings, QPel : No\nFormat settings, GMC : No warppoints\nFormat settings, Matrix : Default (MPEG)\nMuxing mode : Packed bitstream\nCodec ID : XVID\nCodec ID/Hint : XviD\nDuration : 1h 24mn\nBit rate : 1 032 Kbps\nWidth : 704 pixels\nHeight : 288 pixels\nDisplay aspect ratio : 2.444\nFrame rate : 25.000 fps\nResolution : 24 bits\nColorimetry : 4:2:0\nScan type : Progressive\nBits/(Pixel*Frame) : 0.204\nStream size : 622 MiB (95%)\nWriting library : XviD 1.2.1 (UTC 2008-12-04)\n\nAudio\nID : 0\nFormat : MPEG Audio\nFormat version : Version 1\nFormat profile : Layer 3\nCodec ID : 55\nCodec ID/Hint : MP3\nDuration : 1h 24mn\nBit rate mode : Constant\nBit rate : 128 Kbps\nChannel(s) : 2 channels\nSampling rate : 44.1 KHz\nResolution : 16 bits\nStream size : 77.2 MiB (100%)\n\n\nNOTES:\n\nIMAGiNE bringing you another release.....\nHere's our first version of when in rome....sources used are the russian cam (thanks) and the\naudio is by LU (thanks).\nThe video was another one of them &quot;blue&quot; coloured releases and there is several camera\nmovements through.\nAudio for cam was half decent .......\nWork done,firstly stripped LU's audio and jazzed it up a touch in adobe and resaved and resynced\nas it wouldn't mux straight over the russian cam we have....\nThe video we needed to play with the colouring and yet again same as shutter island.....once you get one\npart looking good theres other scenes that aren't as good Anyway done the best we could and also sharpened and\ncleaned up the video a touch aswell.\nOh the video also contains some glare and is worse in some scenes than others.....toned the glares down the best we\ncould without making the film too dull.","torrent":{"xt":"urn:btih:59ee179d070fcac67683c1e073da0fee8d669d57","amp;dn":"When+in+Rome%5B2010%5DCAM.XViD-IMAGiNE%5BExtraTorrent%5D","amp;tr":["udp%3A%2F%2Ftracker.openbittorrent.com%3A80","udp%3A%2F%2Fopen.demonii.com%3A1337","udp%3A%2F%2Ftracker.coppersurfer.tk%3A6969","udp%3A%2F%2Fexodus.desync.com%3A6969"],"infoHash":"59ee179d070fcac67683c1e073da0fee8d669d57","infoHashBuffer":{"type":"Buffer","data":[89,238,23,157,7,15,202,198,118,131,193,224,115,218,15,238,141,102,157,87]},"announce":[],"urlList":[]}}